# xmcd
#
# Track frame offsets:
#	150
#	16172
#	32816
#	49826
#	65750
#	82850
#	99187
#	119776
#	139136
#	153785
#	174252
#	195047
#	211506
#	229396
#	252713
#	269652
#	286157
#	300566
#	314296
#
# Disc length: 4382 seconds
#
# Revision: 1
# Processed by: cddbd v1.5.2PL0 Copyright (c) Steve Scherf et al.
# Submitted via: audiograbber 1.83.01
#
DISCID=fe111c13
DTITLE=аццекопоукос стахгс - ажоялес
DYEAR=1998
DGENRE=Greek
TTITLE0=паяаликас
TTITLE1=кеце кеце лоу 
TTITLE2=пяепеи ма жуцы
TTITLE3=дем летамиымы
TTITLE4=текеиысе
TTITLE5=ежуце йаи йоллатиа л' ейаме
TTITLE6=биылата
TTITLE7=йатастяожг
TTITLE8=йи еявесаи йаи лоу кес суцмылг
TTITLE9=се суцвыяы
TTITLE10=лг фгтас ажоялес
TTITLE11=с' амафгты
TTITLE12=хулалаи
TTITLE13=ле паидеуеис
TTITLE14=ма лахеис пяыта
TTITLE15=паки
TTITLE16=фгсале лафи
TTITLE17=лгм йоккас ста пакиа
TTITLE18=циати ле ецйатекеиьес
EXTD=
EXTT0=
EXTT1=
EXTT2=
EXTT3=
EXTT4=
EXTT5=
EXTT6=
EXTT7=
EXTT8=
EXTT9=
EXTT10=
EXTT11=
EXTT12=
EXTT13=
EXTT14=
EXTT15=
EXTT16=
EXTT17=
EXTT18=
PLAYORDER=
